<svg width="202" height="165" viewBox="0 0 202 165" fill="none" xmlns="http://www.w3.org/2000/svg">
<g clip-path="url(#clip0_19287_137971)">
<path d="M201.037 0.559937H1.38721V251.489H201.037V0.559937Z" fill="white"/>
<path d="M125.349 71.8746C115.485 71.8746 105.443 71.4768 96.0501 68.8789C86.8337 66.3395 78.3715 61.4129 70.8287 55.714C65.8904 52.0044 61.4001 49.0555 54.9887 49.5002C48.711 49.8414 42.7108 52.1802 37.8758 56.1704C29.7201 63.1917 30.9458 76.3331 34.2104 85.5661C39.1133 99.4683 54.034 109.099 66.7154 115.395C81.3651 122.662 97.4644 126.875 113.599 129.309C127.742 131.438 145.915 132.995 158.173 123.82C169.428 115.395 172.516 96.1565 169.758 83.1672C169.089 79.3264 167.032 75.8601 163.971 73.4193C156.063 67.6853 144.265 71.5119 135.379 71.7108C132.079 71.781 128.72 71.8629 125.349 71.8746Z" fill="#F2F2F2"/>
<path d="M101.212 152.067C125.106 152.067 144.477 150.867 144.477 149.387C144.477 147.907 125.106 146.707 101.212 146.707C77.3168 146.707 57.9463 147.907 57.9463 149.387C57.9463 150.867 77.3168 152.067 101.212 152.067Z" fill="#F2F2F2"/>
<path d="M145.42 57.5768V62.6204" stroke="#BABABA" stroke-width="1.17857" stroke-linecap="round" stroke-linejoin="round"/>
<path d="M142.886 60.1025H147.954" stroke="#BABABA" stroke-width="1.17857" stroke-linecap="round" stroke-linejoin="round"/>
<path d="M60.3032 99.9628V104.995" stroke="#BABABA" stroke-width="1.17857" stroke-linecap="round" stroke-linejoin="round"/>
<path d="M57.7583 102.476H62.8379" stroke="#BABABA" stroke-width="1.17857" stroke-linecap="round" stroke-linejoin="round"/>
<path d="M53.1973 36.6053V41.6373" stroke="#BABABA" stroke-width="1.17857" stroke-linecap="round" stroke-linejoin="round"/>
<path d="M50.6519 39.119H55.7315" stroke="#BABABA" stroke-width="1.17857" stroke-linecap="round" stroke-linejoin="round"/>
<path d="M108.425 24.9247C109.062 24.9247 109.58 24.4113 109.58 23.7779C109.58 23.1445 109.062 22.6311 108.425 22.6311C107.787 22.6311 107.27 23.1445 107.27 23.7779C107.27 24.4113 107.787 24.9247 108.425 24.9247Z" fill="#CFCFCF"/>
<path d="M105.667 136.799C106.305 136.799 106.822 136.286 106.822 135.652C106.822 135.019 106.305 134.506 105.667 134.506C105.029 134.506 104.512 135.019 104.512 135.652C104.512 136.286 105.029 136.799 105.667 136.799Z" fill="#CFCFCF"/>
<path d="M130.471 30.3976L63.2534 37.3299C61.719 37.4882 60.6043 38.8515 60.7637 40.375L69.9567 128.253C70.1161 129.777 71.4892 130.884 73.0236 130.725L140.241 123.793C141.776 123.635 142.89 122.271 142.731 120.748L133.538 32.8696C133.378 31.3461 132.005 30.2394 130.471 30.3976Z" fill="#D2D2D2"/>
<path d="M127.578 34.4532L66.9135 40.7097C65.3791 40.8679 64.2645 42.2313 64.4238 43.7548L72.7378 123.229C72.8971 124.753 74.2702 125.86 75.8046 125.701L136.469 119.445C138.004 119.287 139.118 117.923 138.959 116.4L130.645 36.9252C130.486 35.4017 129.113 34.2949 127.578 34.4532Z" fill="white" stroke="#BABABA" stroke-width="1.17857" stroke-linecap="round" stroke-linejoin="round"/>
<path d="M117.111 38.3488L116.168 29.3381C116.121 28.9641 115.928 28.6235 115.63 28.3893C115.333 28.1552 114.955 28.0463 114.577 28.086L103.357 29.2562C103.266 28.3572 102.997 27.4849 102.566 26.689C102.135 25.8931 101.551 25.1893 100.846 24.6178C100.141 24.0462 99.3299 23.618 98.4584 23.3578C97.587 23.0975 96.6724 23.0102 95.767 23.1009C94.8616 23.1916 93.983 23.4584 93.1815 23.8862C92.3799 24.314 91.6711 24.8944 91.0954 25.5942C89.9328 27.0075 89.3833 28.8215 89.5677 30.6371L78.3124 31.8073C78.1227 31.8263 77.9387 31.8822 77.7708 31.972C77.6029 32.0617 77.4545 32.1834 77.3341 32.3302C77.2137 32.4769 77.1236 32.6458 77.069 32.8271C77.0144 33.0085 76.9964 33.1988 77.016 33.3871L77.9588 42.3977C77.9779 42.586 78.0343 42.7688 78.1247 42.9354C78.215 43.1021 78.3376 43.2494 78.4854 43.369C78.6332 43.4886 78.8033 43.578 78.986 43.6322C79.1686 43.6865 79.3602 43.7044 79.5499 43.6849L115.826 39.9403C116.017 39.9214 116.201 39.865 116.369 39.7744C116.538 39.6837 116.686 39.5607 116.805 39.4125C116.925 39.2643 117.014 39.0939 117.066 38.9112C117.119 38.7286 117.134 38.5373 117.111 38.3488Z" fill="white" stroke="#BABABA" stroke-width="1.17857" stroke-linecap="round" stroke-linejoin="round"/>
</g>
<defs>
<clipPath id="clip0_19287_137971">
<rect width="200.357" height="165" fill="white" transform="translate(0.821289)"/>
</clipPath>
</defs>
</svg>
